<?xml version="1.0" standalone="no"?><svg xmlns="http://www.w3.org/2000/svg" viewBox="0 0 1440 320"><path fill="#f3f4f5" fill-opacity="1.22" d="M0,288L30,266.7C60,245,120,203,180,170.7C240,139,300,117,360,128C420,139,480,181,540,170.7C600,160,660,96,720,85.3C780,75,840,117,900,165.3C960,213,1020,267,1080,272C1140,277,1200,235,1260,197.3C1320,160,1380,128,1410,112L1440,96L1440,320L1410,320C1380,320,1320,320,1260,320C1200,320,1140,320,1080,320C1020,320,960,320,900,320C840,320,780,320,720,320C660,320,600,320,540,320C480,320,420,320,360,320C300,320,240,320,180,320C120,320,60,320,30,320L0,320Z"></path></svg>